<svg id="Layer_1" data-name="Layer 1" xmlns="http://www.w3.org/2000/svg" viewBox="0 0 864 128.2098">
  <g>
    <path id="logoMark" d="M118.3551,51.9474V14.4011H40.581L0,88.7993H40.2332v37.5464h77.7742l40.5808-74.3983Zm-40.5722,74.381V88.796H40.2357l40.57-74.3776V51.9507h37.5471Z" style="fill: #55cb64"/>
    <g id="type">
      <path id="type_CompoundPathItem_" data-name="type &lt;CompoundPathItem&gt;" d="M293.9524,124.288v2.0554H249.1639V124.288c5.599-4.2894,6.7195-6.9051,6.7195-9.7028,0-2.241-.7493-4.6641-2.0554-8.5859l-5.97-17.3537H206.7985L202.88,100.0292c-1.306,3.7326-2.0519,6.53-2.0519,9.1426,0,4.8531,3.1724,7.4653,13.81,15.1162v2.0554H181.4192V124.288c8.0255-8.957,10.4521-13.0608,14.37-24.2588L225.0907,14.37H250.47l31.1674,90.5119C284.6207,113.6538,286.6762,117.1973,293.9524,124.288ZM245.9915,82.861,227.3282,27.8059,208.6648,82.861Z" style="fill: #1a1a1a"/>
      <path id="type_CompoundPathItem_2" data-name="type &lt;CompoundPathItem&gt;" d="M365.5454,45.1632V68.3015l-1.4917.56c-15.6765-7.4654-20.9043-9.3317-25.3828-9.3317a16.2032,16.2032,0,0,0-4.6641.7493v49.8273c0,6.7195.9314,7.8365,8.7714,14.1813v2.0554H300.4128V124.288c6.9051-5.5955,8.2112-7.6509,8.2112-13.4355V61.3964c0-6.3448-.9314-8.0221-8.5824-15.4874V43.8571H333.261l.5567,14.1813c6.5339-11.5691,14.7451-16.0476,21.8358-16.0476A16.4717,16.4717,0,0,1,365.5454,45.1632Z" style="fill: #1a1a1a"/>
      <path id="type_CompoundPathItem_3" data-name="type &lt;CompoundPathItem&gt;" d="M438.553,60.6506c-16.0477-10.6378-20.7153-12.8753-25.5649-12.8753-10.8269,0-14.9307,9.5173-14.9307,33.03,0,23.1418,4.6641,35.2712,21.2755,35.2712a28.3035,28.3035,0,0,0,22.0214-9.8884l1.4916,1.117C437.6216,119.81,427.73,128.21,409.441,128.21c-27.06,0-39.3786-18.1031-39.3786-41.8052,0-27.8059,17.1717-44.4138,44.792-44.4138,7.8365,0,17.914,1.4916,25.0047,2.7977l.1891,15.4909Z" style="fill: #1a1a1a"/>
      <path id="type_CompoundPathItem_4" data-name="type &lt;CompoundPathItem&gt;" d="M537.7453,124.288v2.0554H495.7545V124.288c6.9051-5.5955,8.2112-7.6509,8.2112-13.4355V66.9954c0-8.0221-2.9868-13.6211-12.5041-13.6211a20.0558,20.0558,0,0,0-13.4355,5.2244v52.2538c0,5.7846,1.12,7.84,7.2763,13.4355v2.0554h-40.87V124.288c6.9051-5.5955,8.2112-7.6509,8.2112-13.4355V18.66c0-6.716-1.117-8.7714-9.1426-16.6079V0h34.5254V54.4913a31.0457,31.0457,0,0,1,25.5684-12.5005c16.608,0,25.94,9.3281,25.94,25.754v43.1077C529.5341,116.6371,530.84,118.6925,537.7453,124.288Z" style="fill: #1a1a1a"/>
      <path id="type_CompoundPathItem_5" data-name="type &lt;CompoundPathItem&gt;" d="M585.7833,124.288v2.0554H543.9781V124.288c6.9051-5.5955,8.2112-7.6509,8.2112-13.4355V61.3964c0-6.3448-.9315-8.0221-8.5824-15.4874V43.8571h33.9652v66.9954C577.5721,116.6371,578.8782,118.6925,585.7833,124.288ZM549.5771,15.6765c0-7.6509,6.3448-13.439,14.7451-13.439,8.3967,0,14.7416,5.7881,14.7416,13.439S572.7189,29.112,564.3222,29.112C555.9219,29.112,549.5771,23.3274,549.5771,15.6765Z" style="fill: #1a1a1a"/>
      <path id="type_CompoundPathItem_6" data-name="type &lt;CompoundPathItem&gt;" d="M586.0424,43.8571h11.0124l1.3061-22.7707h24.0732V43.8571h20.155v6.1557h-20.155v55.9865c0,7.6545,3.5471,12.133,11.0124,12.133a15.3746,15.3746,0,0,0,9.3317-2.9869l1.117,1.3061c-2.9833,6.72-10.2631,11.7583-22.5816,11.7583-16.4223,0-24.4479-9.1461-24.4479-23.1419V50.0128H586.0424Z" style="fill: #1a1a1a"/>
      <path id="type_CompoundPathItem_7" data-name="type &lt;CompoundPathItem&gt;" d="M721.0662,106.374l1.4951.9314C717.1479,120.5588,705.39,128.21,686.9154,128.21c-29.3011,0-43.1112-19.038-43.1112-42.551,0-24.6335,15.3053-43.668,42.3654-43.668,24.2588,0,36.7629,15.1162,36.7629,34.711a31.862,31.862,0,0,1-.7458,7.8365l-51.1334.189V87.34c0,19.0345,7.0907,29.4867,25.0047,29.4867C707.4451,116.8262,715.4672,112.5333,721.0662,106.374ZM671.0533,70.9172V78.379h26.5V68.8618c0-13.25-2.0519-21.0865-12.3185-21.0865C674.4113,47.7753,671.0533,56.5468,671.0533,70.9172Z" style="fill: #1a1a1a"/>
      <path id="type_CompoundPathItem_8" data-name="type &lt;CompoundPathItem&gt;" d="M798.6083,60.6506c-16.0477-10.6378-20.7152-12.8753-25.5649-12.8753-10.8268,0-14.9307,9.5173-14.9307,33.03,0,23.1418,4.6641,35.2712,21.2755,35.2712a28.3035,28.3035,0,0,0,22.0214-9.8884l1.4916,1.117C797.6769,119.81,787.785,128.21,769.4963,128.21c-27.06,0-39.3786-18.1031-39.3786-41.8052,0-27.8059,17.1717-44.4138,44.792-44.4138,7.8365,0,17.914,1.4916,25.0047,2.7977l.1891,15.4909Z" style="fill: #1a1a1a"/>
      <path id="type_CompoundPathItem_9" data-name="type &lt;CompoundPathItem&gt;" d="M806.1472,43.8571H817.16l1.3061-22.7707h24.0732V43.8571h20.155v6.1557h-20.155v55.9865c0,7.6545,3.5471,12.133,11.0125,12.133a15.3745,15.3745,0,0,0,9.3316-2.9869L864,116.4515c-2.9833,6.72-10.2631,11.7583-22.5816,11.7583-16.4223,0-24.4479-9.1461-24.4479-23.1419V50.0128H806.1472Z" style="fill: #1a1a1a"/>
    </g>
  </g>
</svg>
