<?xml version="1.0" encoding="utf-8"?><svg xmlns="http://www.w3.org/2000/svg" width="275" height="62.564" viewBox="0 0 275 62.564"><defs><style>.a,.b{fill:#313132;}.a,.c,.d,.e,.f,.g{fill-rule:evenodd;}.c{fill:#1ba9a2;}.d{fill:#0086aa;}.e{fill:#0069b1;}.f,.h{fill:#2eaa7b;}.g{fill:#00577c;}</style></defs><g transform="translate(-127.151 -271.685)"><path class="a" d="M237.661,292.04a5.483,5.483,0,1,0,5.485,5.483,5.484,5.484,0,0,0-5.485-5.483m0-3.036a8.508,8.508,0,1,0,8.509,8.509A8.509,8.509,0,0,0,237.661,289Z" transform="translate(32.807 5.57)"/><path class="b" d="M205.722,297.389h4.064a1.866,1.866,0,0,0,1.5-.734,3.026,3.026,0,0,0,.6-1.984,3.284,3.284,0,0,0-.189-1.147,2.778,2.778,0,0,0-.5-.862,1.959,1.959,0,0,0-.72-.531,2.1,2.1,0,0,0-.839-.178h-3.923Zm-3.262,8.485V289.093h7.4a4.766,4.766,0,0,1,2.138.485,5.518,5.518,0,0,1,1.69,1.277,6.012,6.012,0,0,1,1.111,1.8,5.415,5.415,0,0,1,.4,2.021,5.816,5.816,0,0,1-.379,2.067,5.752,5.752,0,0,1-1.064,1.786,5.218,5.218,0,0,1-1.653,1.252,4.775,4.775,0,0,1-2.126.473h-4.254v5.625Z" transform="translate(24.221 5.599)"/><path class="b" d="M219.223,297.389h4.088a1.726,1.726,0,0,0,.839-.213,2.134,2.134,0,0,0,.674-.579,2.918,2.918,0,0,0,.449-.863,3.352,3.352,0,0,0,.165-1.063,3.048,3.048,0,0,0-.189-1.088,2.882,2.882,0,0,0-.509-.863,2.282,2.282,0,0,0-.732-.567,1.891,1.891,0,0,0-.839-.2h-3.946Zm-3.262,8.485V289.093h7.421a4.766,4.766,0,0,1,2.138.485,5.539,5.539,0,0,1,1.69,1.277,5.982,5.982,0,0,1,1.11,1.8,5.389,5.389,0,0,1,.4,2.021,5.585,5.585,0,0,1-.814,2.966,4.68,4.68,0,0,1-2.211,1.926l3.829,6.311h-3.662l-3.427-5.625h-3.214v5.625Z" transform="translate(28.564 5.599)"/><path class="b" d="M303.884,299.4l-2.315-6.594-2.411,6.594Zm-3.757-10.3h2.884l6.381,16.781h-3.356l-1.561-4.183h-5.86l-1.537,4.183h-3.356Z" transform="translate(53.574 5.599)"/><path class="b" d="M312.9,297.389h4.088a1.725,1.725,0,0,0,.839-.213,2.147,2.147,0,0,0,.674-.579,2.884,2.884,0,0,0,.448-.863,3.315,3.315,0,0,0,.167-1.063,3.042,3.042,0,0,0-.189-1.088,2.864,2.864,0,0,0-.509-.863,2.315,2.315,0,0,0-.732-.567,1.91,1.91,0,0,0-.839-.2H312.9Zm-3.262,8.485V289.093h7.421a4.784,4.784,0,0,1,2.138.485,5.519,5.519,0,0,1,1.69,1.277,6.025,6.025,0,0,1,1.11,1.8,5.415,5.415,0,0,1,.4,2.021,5.583,5.583,0,0,1-.815,2.966,4.684,4.684,0,0,1-2.21,1.926l3.829,6.311h-3.662l-3.427-5.625H312.9v5.625Z" transform="translate(58.692 5.599)"/><path class="b" d="M335.44,297.46a7.167,7.167,0,0,0-.33-2.222,4.989,4.989,0,0,0-.97-1.749,4.3,4.3,0,0,0-1.571-1.135,5.343,5.343,0,0,0-2.115-.4h-2.836v11.061h2.836a5.1,5.1,0,0,0,2.138-.426,4.375,4.375,0,0,0,1.56-1.168,5.224,5.224,0,0,0,.958-1.762,7.086,7.086,0,0,0,.33-2.2m-11.085,8.413V289.093h6.1a9.1,9.1,0,0,1,3.6.663,7.237,7.237,0,0,1,4.147,4.454,10.011,10.011,0,0,1,.521,3.25,9.812,9.812,0,0,1-.58,3.461,7.407,7.407,0,0,1-1.665,2.649,7.513,7.513,0,0,1-2.612,1.7,9.252,9.252,0,0,1-3.415.6Z" transform="translate(63.426 5.599)"/><path class="c" d="M164.4,287.931a8.667,8.667,0,0,0-6.027,2.355,6.466,6.466,0,0,0-1.715,5.387,6.466,6.466,0,0,0,5.387-1.715,8.676,8.676,0,0,0,2.355-6.027m-9.8,7.323h0a8.288,8.288,0,0,1,2.325-6.386,10.951,10.951,0,0,1,8.528-2.942,1.017,1.017,0,0,1,.954.956,10.953,10.953,0,0,1-2.941,8.528,8.3,8.3,0,0,1-6.386,2.325q.153.515.348,1.018a5.049,5.049,0,0,0-1.429,1.817h0a15.432,15.432,0,0,1-1.1-3.14A13.535,13.535,0,0,1,154.592,295.254Z" transform="translate(8.822 4.571)"/><path class="d" d="M152.407,294.529a6.464,6.464,0,0,0,2.6-5.022,8.672,8.672,0,0,0-2.6-5.926,8.661,8.661,0,0,0-2.6,5.926,6.456,6.456,0,0,0,2.6,5.022m-1.755,1.163a8.3,8.3,0,0,1-2.872-6.16,10.952,10.952,0,0,1,3.95-8.111,1.019,1.019,0,0,1,1.352,0,10.952,10.952,0,0,1,3.95,8.111,8.3,8.3,0,0,1-2.872,6.16c.318.17.641.329.97.476v.007a5.081,5.081,0,0,0,.276,2.288,15.463,15.463,0,0,1-3-1.446A13.7,13.7,0,0,1,150.652,295.692Z" transform="translate(6.635 3.049)"/><path class="e" d="M141.049,287.931a8.667,8.667,0,0,1,6.027,2.355,6.467,6.467,0,0,1,1.717,5.387,6.468,6.468,0,0,1-5.388-1.715,8.676,8.676,0,0,1-2.355-6.027m7.324,9.8a8.293,8.293,0,0,1-6.386-2.325,10.955,10.955,0,0,1-2.943-8.528,1.019,1.019,0,0,1,.956-.956,10.951,10.951,0,0,1,8.528,2.942,8.3,8.3,0,0,1,2.326,6.386q.527-.159,1.039-.357a5.021,5.021,0,0,0,1.809,1.429l.011,0a15.429,15.429,0,0,1-3.163,1.107A13.554,13.554,0,0,1,148.373,297.735Z" transform="translate(3.816 4.571)"/><path class="f" d="M178.615,324.722c-14.793,12.639-34.18,8.872-45.107-6.858-5.12-7.073-5.416-17.673-2.218-25.57,10.025-24.757,45.479-24.757,55.5,0,3.2,7.9,2.9,18.5-2.218,25.57-3.578,4.946-10.031,7.422-15.314,3.349-3.991-3.081-4.6-8.5-2.282-12.78a8.3,8.3,0,0,0,6.16,2.871,10.953,10.953,0,0,0,8.111-3.949,1.019,1.019,0,0,0,0-1.352,10.954,10.954,0,0,0-8.111-3.95,8.287,8.287,0,0,0-6.154,2.865l-.007.005a13.987,13.987,0,0,0-1.324,1.755c-3.263,5.206-2.771,12.177,2.367,16.142a11.293,11.293,0,0,0,10.594,1.9m.474-18.044a8.67,8.67,0,0,0-5.926-2.6,6.469,6.469,0,0,0-5.024,2.6,6.465,6.465,0,0,0,5.024,2.6A8.676,8.676,0,0,0,179.09,306.678Zm7.2,12.277c5.524-7.728,5.85-18.864,2.383-27.423-10.714-26.463-48.55-26.462-59.266,0-3.465,8.559-3.141,19.695,2.383,27.423A31.923,31.923,0,0,0,186.291,318.954Z" transform="translate(0 0)"/><path class="g" d="M136.7,299.288a8.664,8.664,0,0,1,5.926-2.6,6.466,6.466,0,0,1,5.022,2.6,6.463,6.463,0,0,1-5.022,2.6,8.67,8.67,0,0,1-5.926-2.6m12.11,1.755a8.293,8.293,0,0,1-6.16,2.871,10.948,10.948,0,0,1-8.109-3.949,1.016,1.016,0,0,1,0-1.352,10.949,10.949,0,0,1,8.109-3.95,8.293,8.293,0,0,1,6.16,2.871q.26-.482.482-.983a5.046,5.046,0,0,0,2.292-.271v0a15.511,15.511,0,0,1-1.45,3.012A13.808,13.808,0,0,1,148.81,301.043Zm-12.164,13.926a9.4,9.4,0,0,0,9.882-1.146,9.757,9.757,0,0,0,2.988-11.2h0a5.033,5.033,0,0,0,1.445-1.813c2.3,4.976,1.456,11.028-3.193,14.616a11.269,11.269,0,0,1-8.05,2.42A36.227,36.227,0,0,1,136.646,314.969Z" transform="translate(2.294 7.39)"/><path class="b" d="M287.747,289.141h3.025L288.1,296.17l2.568,6.728,5.285-13.8h3.126l-6.427,16.78h-3.7l-2.274-5.985-2.263,5.985h-4.122l-6.428-16.78H277l5.381,14.071Z" transform="translate(47.188 5.599)"/><path class="b" d="M275.912,291.953h-6.771v13.921H265.9V291.953h-6.771v-2.86h16.78Z" transform="translate(42.449 5.599)"/><path class="b" d="M252.557,303.109a3.747,3.747,0,0,0,1.949-.473,3.8,3.8,0,0,0,1.277-1.229,5.1,5.1,0,0,0,.686-1.737,10.173,10.173,0,0,0,.2-2.021v-8.556h3.239v8.556a12.264,12.264,0,0,1-.414,3.238,7.46,7.46,0,0,1-1.3,2.647,6.211,6.211,0,0,1-2.281,1.795,7.706,7.706,0,0,1-3.332.662,7.622,7.622,0,0,1-3.415-.7,6.385,6.385,0,0,1-2.281-1.844,7.342,7.342,0,0,1-1.263-2.659,12.509,12.509,0,0,1-.391-3.143v-8.556h3.262v8.556a10.186,10.186,0,0,0,.2,2.043,5.085,5.085,0,0,0,.686,1.738,3.557,3.557,0,0,0,3.179,1.678" transform="translate(37.978 5.599)"/><path class="a" d="M188.033,303.179a11.26,11.26,0,0,0,7.159,2.835c2.976,0,6.434-1.709,6.434-5.084a4.332,4.332,0,0,0-3.012-4.085,14.732,14.732,0,0,0-3.566-.859c-1.273-.226-3.728-.518-3.728-2.255,0-1.46,1.585-1.819,2.753-1.832a8.27,8.27,0,0,1,4.367,1.2l1.8-2.17a11.1,11.1,0,0,0-6.212-1.907c-3.085.032-5.9,1.577-5.9,4.979a3.63,3.63,0,0,0,1.108,2.674,5.2,5.2,0,0,0,.9.707,11.636,11.636,0,0,0,4.542,1.389c1.219.223,3.752.49,3.752,2.171,0,1.624-2,2.156-3.3,2.171a7.4,7.4,0,0,1-5.156-2.095Z" transform="translate(19.581 5.576)"/><path class="h" d="M280.457,289.129h2.84l.587,1.539-1.42,3.712Z" transform="translate(49.308 5.611)"/></g></svg>